<svg width="53" height="53" viewBox="0 0 53 53" fill="none" xmlns="http://www.w3.org/2000/svg">
<path d="M0 26.5C0 11.8645 11.8645 0 26.5 0C41.1355 0 53 11.8645 53 26.5C53 41.1355 41.1355 53 26.5 53C11.8645 53 0 41.1355 0 26.5Z" fill="#2F80ED"/>
<path fill-rule="evenodd" clip-rule="evenodd" d="M21.2191 34.6247C20.8741 34.1934 20.944 33.5641 21.3753 33.2191L30.3992 26L21.3753 18.7808C20.944 18.4358 20.8741 17.8065 21.2191 17.3753C21.5641 16.944 22.1934 16.8741 22.6246 17.2191L31.6486 24.4382C32.6494 25.2389 32.6494 26.7611 31.6486 27.5617L22.6246 34.7808C22.1934 35.1258 21.5641 35.0559 21.2191 34.6247Z" fill="white"/>
</svg>
