<svg width="53" height="53" viewBox="0 0 53 53" fill="none" xmlns="http://www.w3.org/2000/svg">
<path d="M53 26.5C53 41.1355 41.1355 53 26.5 53C11.8645 53 0 41.1355 0 26.5C0 11.8645 11.8645 0 26.5 0C41.1355 0 53 11.8645 53 26.5Z" fill="#2F80ED"/>
<path fill-rule="evenodd" clip-rule="evenodd" d="M31.7809 18.3753C32.1259 18.8066 32.0559 19.4359 31.6247 19.7809L22.6008 27L31.6247 34.2192C32.0559 34.5642 32.1259 35.1935 31.7809 35.6247C31.4358 36.056 30.8066 36.1259 30.3753 35.7809L21.3514 28.5618C20.3506 27.7611 20.3506 26.2389 21.3514 25.4383L30.3753 18.2192C30.8066 17.8742 31.4358 17.9441 31.7809 18.3753Z" fill="white"/>
</svg>
