<svg width="20" height="20" viewBox="0 0 20 20" fill="none" xmlns="http://www.w3.org/2000/svg">
<path fill-rule="evenodd" clip-rule="evenodd" d="M0 0.937403C0 0.41969 0.419837 0 0.937732 0H2.8132C3.26994 0 3.66025 0.32896 3.73744 0.778976L4.24735 3.75164L19.0623 3.75164C19.3682 3.75164 19.6548 3.90079 19.8303 4.15126C20.0058 4.40172 20.0481 4.72201 19.9435 5.00939L17.4429 11.8837C17.3206 12.22 17.0174 12.4573 16.6615 12.4954L5.9441 13.6433L6.07933 14.4317C7.16101 14.6509 8.01744 15.4905 8.26086 16.5628H12.1512C12.4355 15.3105 13.5559 14.3756 14.8947 14.3756C16.4484 14.3756 17.7079 15.6346 17.7079 17.1878C17.7079 18.7409 16.4484 20 14.8947 20C13.7901 20 12.8342 19.3636 12.3739 18.4376H8.03818C7.57785 19.3636 6.62196 20 5.51738 20C3.9637 20 2.70419 18.7409 2.70419 17.1878C2.70419 16.102 3.31974 15.1599 4.22103 14.6913L2.02257 1.87481H0.937732C0.419837 1.87481 0 1.45512 0 0.937403ZM5.68285 11.7858L15.8802 10.6935L17.7235 5.62645L4.73493 5.62645L5.68285 11.7858ZM5.51738 16.2504C4.99949 16.2504 4.57965 16.6701 4.57965 17.1878C4.57965 17.7055 4.99949 18.1252 5.51738 18.1252C6.03528 18.1252 6.45511 17.7055 6.45511 17.1878C6.45511 16.6701 6.03528 16.2504 5.51738 16.2504ZM14.8947 16.2504C14.3768 16.2504 13.957 16.6701 13.957 17.1878C13.957 17.7055 14.3768 18.1252 14.8947 18.1252C15.4126 18.1252 15.8324 17.7055 15.8324 17.1878C15.8324 16.6701 15.4126 16.2504 14.8947 16.2504Z" fill="#2F80ED"/>
</svg>
