<svg width="20" height="20" viewBox="0 0 20 20" fill="none" xmlns="http://www.w3.org/2000/svg">
<path d="M1.38889 0C0.631511 0 0 0.598273 0 1.31579V4.47368C0 5.09046 0.501302 5.54276 1.11111 5.68051V16.5789C1.11111 18.4581 2.73872 20 4.72222 20H15.2778C17.2613 20 18.8889 18.4581 18.8889 16.5789V5.68051C19.4987 5.54276 20 5.09046 20 4.47368V1.31579C20 0.598273 19.3685 0 18.6111 0H1.38889ZM1.66667 1.57895H18.3333V4.21053H1.66667V1.57895ZM2.77778 5.78947H17.2222V16.5789C17.2222 17.6049 16.3607 18.4211 15.2778 18.4211H4.72222C3.63932 18.4211 2.77778 17.6049 2.77778 16.5789V5.78947ZM7.5 8.94737C7.20052 8.94326 6.92057 9.09334 6.76866 9.33799C6.61675 9.5847 6.61675 9.88898 6.76866 10.1357C6.92057 10.3803 7.20052 10.5304 7.5 10.5263H12.5C12.7995 10.5304 13.0794 10.3803 13.2313 10.1357C13.3832 9.88898 13.3832 9.5847 13.2313 9.33799C13.0794 9.09334 12.7995 8.94326 12.5 8.94737H7.5Z" fill="#2F80ED"/>
</svg>
