<svg width="30" height="30" viewBox="0 0 30 30" fill="none" xmlns="http://www.w3.org/2000/svg">
<path d="M28.3642 22.2795H22.7951C22.4941 22.2795 22.2496 22.0027 22.2496 21.6606C22.2496 21.3191 22.4941 21.0417 22.7951 21.0417H28.3642C28.6646 21.0417 28.9091 20.7643 28.9091 20.4228V1.85609C28.9091 1.51523 28.6646 1.23779 28.3642 1.23779H1.6369C1.33595 1.23779 1.0909 1.51523 1.0909 1.85609V20.4228C1.0909 20.7643 1.33595 21.0417 1.6369 21.0417H10.4419C10.7434 21.0417 10.9874 21.3191 10.9874 21.6606C10.9874 22.0027 10.7434 22.2795 10.4419 22.2795H1.6369C0.734017 22.2795 0 21.4466 0 20.4228V1.85609C0 0.832555 0.734017 0 1.6369 0H28.3642C29.2665 0 30 0.832555 30 1.85609V20.4228C30 21.4466 29.2665 22.2795 28.3642 22.2795Z" fill="black"/>
<path d="M8.17548 6.41986C9.67763 6.41986 10.6103 7.19563 10.6103 8.47693C10.6103 9.4059 10.1229 10.0994 9.33564 10.3113C10.3099 10.4992 10.89 11.2871 10.89 12.3922C10.89 13.8032 9.88482 14.6496 8.24792 14.6496H5.02527V6.41986H8.17548ZM6.24773 9.82898H8.11316C8.88979 9.82898 9.35642 9.41769 9.35642 8.72383C9.35642 8.0306 8.88979 7.65435 8.11316 7.65435H6.24773V9.82898ZM6.24773 13.4151H8.11316C9.06611 13.4151 9.63608 12.9918 9.63608 12.2157C9.63608 11.4868 9.06611 11.052 8.11316 11.052H6.24773V13.4151Z" fill="black"/>
<path d="M18.5072 11.2399C18.5072 13.3916 17.3156 14.7085 15.357 14.7085C13.3989 14.7085 12.1967 13.3916 12.1967 11.2399V6.41986H13.4197V11.2399C13.4197 12.6273 14.1761 13.462 15.3677 13.462C16.5486 13.462 17.2842 12.6391 17.2842 11.2399V6.41986H18.5072V11.2399Z" fill="black"/>
<path d="M23.2335 14.6496H22.0212V11.957L19.3163 6.41986H20.5494L22.622 10.4288L24.6531 6.41986H25.8964L23.2335 11.9102V14.6496Z" fill="black"/>
<path d="M18.0676 30C16.5505 30 14.5823 29.1744 12.8453 28.4461C11.8769 28.0393 10.9618 27.6561 10.3833 27.5377C9.43516 27.3449 8.8865 26.6752 8.87745 25.7009C8.87211 25.1763 9.05163 24.6656 9.37016 24.3005C9.67804 23.9464 10.0877 23.7518 10.5239 23.7518L11.7272 23.7989L7.35295 18.8356C6.6754 18.0662 6.6525 16.8871 7.30128 16.1497C7.93357 15.4317 9.00315 15.4558 9.65408 16.1944L11.9286 18.7746C12.0074 18.589 12.1156 18.4162 12.2503 18.2638C12.6962 17.7574 13.3817 17.6015 13.9644 17.845C14.0422 17.5906 14.1706 17.3524 14.3512 17.1475C14.8039 16.6332 15.4996 16.4827 16.0871 16.7384C16.1649 16.4881 16.2928 16.2524 16.4707 16.0506C17.1014 15.3344 18.1821 15.3667 18.8368 16.1104L21.9071 19.5947C23.8918 21.8455 23.1056 25.0585 22.4126 26.4425C22.3881 26.4909 22.3582 26.5356 22.3236 26.5743L19.9559 29.2602C19.5234 29.751 18.8884 30 18.0676 30ZM10.5175 24.9895C10.3412 24.9895 10.2177 25.0881 10.1457 25.1703C10.0312 25.302 9.96624 25.4906 9.96837 25.687C9.96996 25.8659 9.97317 26.1971 10.5761 26.3192C11.25 26.457 12.1646 26.8408 13.2235 27.285C14.7927 27.9432 16.7461 28.7622 18.0676 28.7622C18.5885 28.7622 18.9641 28.6353 19.1846 28.3851L21.4959 25.7632C21.719 25.2785 22.8941 22.4644 21.1358 20.4705L18.0649 16.9849C17.9345 16.8375 17.7666 16.7523 17.6047 16.7523C17.5094 16.7523 17.3687 16.7825 17.242 16.9258C17.0151 17.1832 17.0321 17.5627 17.2824 17.8481C17.495 18.0898 17.495 18.4815 17.2819 18.7226C17.0694 18.9638 16.7237 18.9638 16.5106 18.722L15.946 18.0813C15.8155 17.9339 15.6477 17.8492 15.4852 17.8492C15.3893 17.8492 15.2492 17.8795 15.1225 18.0227C14.8961 18.2796 14.9115 18.6579 15.1603 18.9414C15.164 18.9456 15.1677 18.9505 15.172 18.9553C15.172 18.9553 15.1725 18.9559 15.1731 18.9565C15.1736 18.9565 15.1741 18.9583 15.1741 18.9577C15.1747 18.9583 15.1747 18.9589 15.1752 18.9589V18.9595C15.1757 18.9601 15.1763 18.9601 15.1763 18.9607C15.1763 18.9613 15.1768 18.9613 15.1773 18.9619C15.1784 18.9625 15.1789 18.9638 15.1789 18.9638C15.1789 18.9644 15.1795 18.9644 15.18 18.965C15.18 18.9655 15.1806 18.9662 15.181 18.9662C15.1816 18.9662 15.1816 18.9674 15.1821 18.968C15.1821 18.968 15.1821 18.9674 15.1832 18.9692C15.1832 18.9698 15.1837 18.9698 15.1837 18.9698C15.1837 18.9698 15.1843 18.971 15.1848 18.9716C15.1853 18.9716 15.1858 18.9722 15.1858 18.9734C15.1864 18.9734 15.1864 18.9746 15.1875 18.9746C15.1869 18.9746 15.188 18.9758 15.1885 18.9758C15.1896 18.977 15.1896 18.9777 15.1896 18.9777C15.1906 18.9782 15.1902 18.9789 15.1906 18.9795H15.1912L15.1917 18.9806H15.1923C15.1923 18.9813 15.1928 18.9819 15.1928 18.9819L15.1933 18.9825C15.1938 18.9825 15.1944 18.9843 15.1944 18.9843C15.1944 18.9843 15.1949 18.9849 15.1954 18.9855C15.1954 18.9855 15.196 18.9867 15.1965 18.9867C15.1971 18.9873 15.1971 18.9879 15.1976 18.9879V18.9885C15.1981 18.9891 15.1981 18.9891 15.1987 18.9898V18.9903C15.1992 18.9903 15.1992 18.991 15.1997 18.9915C15.2008 18.9922 15.2008 18.9927 15.2008 18.9927C15.2503 19.0635 15.2844 19.1432 15.3031 19.2267C15.3031 19.2273 15.3031 19.2279 15.3031 19.2285C15.3035 19.2291 15.3035 19.2297 15.3035 19.2303C15.3035 19.2309 15.3041 19.2315 15.3041 19.2321C15.3041 19.2327 15.3041 19.2333 15.3046 19.2339C15.3046 19.2345 15.3046 19.2351 15.3046 19.2357C15.3046 19.2363 15.3052 19.2369 15.3052 19.2375C15.3052 19.2382 15.3052 19.2387 15.3057 19.2393C15.3057 19.2399 15.3057 19.2406 15.3057 19.2412C15.3062 19.2417 15.3062 19.2424 15.3062 19.243C15.3062 19.2436 15.3062 19.2442 15.3068 19.2448C15.3068 19.2448 15.3068 19.2454 15.3068 19.2466C15.3068 19.2466 15.3068 19.2478 15.3073 19.2484V19.249C15.3073 19.249 15.3073 19.2496 15.3079 19.2502C15.3079 19.2515 15.3079 19.2515 15.3079 19.2521V19.2526C15.3084 19.2526 15.3084 19.2532 15.3084 19.2538C15.3084 19.2551 15.3084 19.2551 15.3089 19.2556V19.2563C15.3089 19.2569 15.3089 19.2575 15.3089 19.2575C15.3089 19.2587 15.3094 19.2599 15.3094 19.2599C15.3094 19.2611 15.3094 19.2611 15.3094 19.2611C15.31 19.2623 15.3094 19.2629 15.31 19.2635C15.3105 19.2647 15.3105 19.2647 15.3105 19.2653C15.3105 19.2653 15.311 19.2671 15.3105 19.2671C15.311 19.2671 15.311 19.2684 15.311 19.269C15.311 19.2696 15.311 19.2696 15.311 19.2708C15.311 19.2708 15.3116 19.2708 15.3116 19.272C15.3116 19.272 15.3116 19.2732 15.3116 19.2744C15.3116 19.275 15.3121 19.2756 15.3121 19.2756V19.2762C15.3121 19.2768 15.3121 19.2768 15.3121 19.278C15.3121 19.2786 15.3126 19.2792 15.3126 19.2792V19.2798C15.3126 19.2804 15.3126 19.2804 15.3126 19.2817L15.3131 19.2829C15.3131 19.2841 15.3131 19.2841 15.3131 19.2853L15.3137 19.2865C15.3137 19.2877 15.3131 19.2877 15.3137 19.2889C15.3137 19.2901 15.3137 19.2913 15.3143 19.2913C15.3137 19.2925 15.3148 19.2925 15.3143 19.2925C15.3143 19.2938 15.3143 19.2938 15.3143 19.2943C15.3143 19.2938 15.3148 19.2949 15.3148 19.2962C15.3148 19.2962 15.3148 19.2968 15.3148 19.298C15.3148 19.298 15.3153 19.2986 15.3153 19.2998C15.3153 19.3004 15.3148 19.301 15.3153 19.3016C15.3153 19.3022 15.3153 19.3028 15.3153 19.3034C15.3153 19.3046 15.3158 19.3046 15.3158 19.3052C15.3158 19.3058 15.3158 19.3058 15.3158 19.3058C15.3158 19.3071 15.3158 19.3071 15.3158 19.3082C15.3158 19.3088 15.3164 19.3088 15.3164 19.3095C15.3164 19.3106 15.3164 19.3106 15.3164 19.3119C15.3164 19.3119 15.3164 19.3119 15.3164 19.3131C15.3164 19.3131 15.3164 19.3131 15.3164 19.3143C15.3174 19.3149 15.3164 19.3155 15.3169 19.3167V19.3179C15.3169 19.3191 15.3169 19.3191 15.3169 19.3203L15.3174 19.3215C15.3174 19.3228 15.3174 19.3228 15.3174 19.324C15.318 19.324 15.3174 19.3252 15.3174 19.3252C15.3174 19.3264 15.3174 19.3264 15.318 19.3276C15.318 19.3276 15.318 19.3288 15.318 19.3294C15.318 19.33 15.3174 19.3306 15.318 19.3312C15.318 19.3318 15.318 19.3324 15.318 19.333C15.318 19.3336 15.318 19.3343 15.318 19.3348C15.3185 19.3354 15.3185 19.336 15.3185 19.3367C15.3185 19.3373 15.3185 19.3379 15.3185 19.3385C15.3185 19.3391 15.3185 19.3391 15.3185 19.3403C15.3185 19.3415 15.3185 19.3421 15.3185 19.3421C15.3185 19.3433 15.3185 19.3433 15.3185 19.3445C15.319 19.3445 15.319 19.3457 15.319 19.3457C15.319 19.3469 15.319 19.3469 15.319 19.3481V19.3493C15.319 19.3505 15.319 19.3505 15.319 19.3518V19.353C15.319 19.3542 15.319 19.3548 15.319 19.3554C15.319 19.356 15.3195 19.3566 15.3195 19.3572C15.3195 19.3578 15.3195 19.3584 15.3195 19.359C15.3195 19.359 15.3195 19.3596 15.3195 19.3602C15.3195 19.3602 15.3195 19.3608 15.3195 19.3621C15.3195 19.3627 15.3195 19.3632 15.3195 19.3638C15.319 19.3651 15.319 19.3651 15.3195 19.3657C15.3195 19.3662 15.3195 19.3662 15.3195 19.3662C15.3195 19.3675 15.3195 19.3675 15.3195 19.3687C15.3195 19.3687 15.3195 19.3687 15.3195 19.3699C15.3195 19.3699 15.3195 19.3699 15.3195 19.3711C15.3195 19.3711 15.3195 19.3723 15.3195 19.3735V19.3747C15.3195 19.376 15.3195 19.3765 15.3195 19.3771C15.3195 19.3784 15.3195 19.3784 15.3195 19.379V19.3796C15.3195 19.3796 15.3195 19.3802 15.3195 19.3808C15.3195 19.3808 15.3195 19.3814 15.3195 19.3826C15.3195 19.3826 15.3195 19.3838 15.3195 19.3844C15.3195 19.385 15.3195 19.3856 15.3195 19.3862C15.3195 19.3868 15.3195 19.3868 15.3195 19.388V19.3886C15.3195 19.3893 15.3195 19.3893 15.3195 19.3905C15.3195 19.391 15.3195 19.3917 15.3195 19.3917V19.3922C15.3195 19.3935 15.3195 19.3941 15.3195 19.3941C15.3195 19.3953 15.3195 19.3953 15.3195 19.3965C15.3195 19.3965 15.3195 19.3971 15.3195 19.3977C15.3195 19.3977 15.3195 19.3983 15.3195 19.3995V19.4001C15.3195 19.4001 15.3195 19.4007 15.3195 19.4013C15.3195 19.4025 15.3195 19.4025 15.3195 19.4031V19.4038C15.319 19.4049 15.319 19.4049 15.319 19.4049C15.319 19.4062 15.319 19.4074 15.319 19.4074V19.4086C15.319 19.4086 15.319 19.4098 15.319 19.411C15.318 19.4098 15.319 19.411 15.319 19.4122V19.4128C15.319 19.4134 15.319 19.414 15.319 19.4146C15.3185 19.4158 15.3185 19.4164 15.3185 19.4164C15.3185 19.4171 15.3185 19.4177 15.3185 19.4182C15.3185 19.4188 15.3185 19.4195 15.3185 19.4201C15.3185 19.4201 15.3185 19.4207 15.3185 19.4219C15.3185 19.4219 15.3185 19.4225 15.3185 19.4237V19.4243C15.3185 19.4249 15.3185 19.4267 15.318 19.4255C15.318 19.4267 15.318 19.4279 15.318 19.4279V19.4291C15.318 19.4303 15.318 19.4303 15.318 19.4315V19.4328C15.3174 19.4339 15.3174 19.4339 15.3174 19.4352C15.3174 19.4352 15.3169 19.4376 15.3174 19.437C15.3174 19.4376 15.3174 19.4382 15.3174 19.4388C15.3174 19.4394 15.3169 19.44 15.3169 19.4406C15.3052 19.5784 15.253 19.712 15.1603 19.8172C15.1283 19.854 15.0932 19.8848 15.0559 19.9102C15.0074 19.9435 14.9558 19.9671 14.9025 19.9815C14.7246 20.0311 14.5302 19.9767 14.3911 19.8189L13.8435 19.1971C13.7141 19.0496 13.5468 18.9649 13.3849 18.9649C13.289 18.9649 13.1484 18.9952 13.0211 19.1402C12.9124 19.2629 12.8576 19.4134 12.8624 19.5766C12.8671 19.7482 12.9375 19.9187 13.0594 20.0577C13.0605 20.0589 13.061 20.0589 13.0605 20.0589C13.0616 20.0595 13.061 20.0601 13.0621 20.0607C13.0626 20.0613 13.0626 20.0613 13.0632 20.0625L13.0642 20.0638C13.0648 20.0638 13.0648 20.0638 13.0648 20.0638C13.0653 20.065 13.0658 20.0649 13.0664 20.0655C13.0664 20.0662 13.0674 20.0662 13.0674 20.0674C13.0674 20.0674 13.0679 20.0686 13.0685 20.0686C13.069 20.0686 13.069 20.0686 13.0696 20.0698C13.0696 20.0698 13.0701 20.0698 13.0706 20.071C13.0712 20.0722 13.0717 20.0722 13.0722 20.0722C13.0722 20.0728 13.0727 20.0734 13.0733 20.0734V20.074C13.0733 20.0746 13.0738 20.0746 13.0744 20.0752C13.0749 20.0758 13.0749 20.0758 13.0754 20.0771C13.076 20.0771 13.0765 20.0777 13.0765 20.0782C13.2725 20.3212 13.2672 20.6989 13.0605 20.9341C12.8538 21.1686 12.5236 21.1758 12.3094 20.9558C12.3084 20.9552 12.3079 20.9534 12.3079 20.9546C12.3079 20.954 12.3068 20.9534 12.3068 20.9534C12.3062 20.9534 12.3057 20.9522 12.3057 20.9522H12.3052C12.3047 20.951 12.3052 20.951 12.3041 20.951C12.3036 20.9498 12.3041 20.951 12.3025 20.9492C12.3025 20.9486 12.302 20.9486 12.302 20.9486C12.3015 20.9486 12.3015 20.9474 12.3009 20.9474C12.2999 20.9461 12.2999 20.9461 12.2993 20.9456C12.2993 20.9456 12.2988 20.9456 12.2983 20.9443C12.2983 20.9437 12.2972 20.9431 12.2972 20.9431C12.2967 20.9425 12.2967 20.9425 12.2956 20.9413C12.2956 20.9413 12.2951 20.9413 12.2951 20.9407L12.2945 20.9401C12.294 20.9401 12.2935 20.9395 12.2935 20.9389C12.2935 20.9383 12.2929 20.9377 12.2919 20.9377L12.2913 20.9365C12.2908 20.9365 12.2903 20.9353 12.2903 20.9353L8.88276 17.0696C8.64467 16.7988 8.29522 16.7728 8.07257 17.0249C7.81957 17.3125 7.90693 17.7133 8.12425 17.9605L13.4765 24.0334C13.6353 24.2135 13.6805 24.4849 13.591 24.7176C13.5021 24.9509 13.3098 25.1068 13.0722 25.0899L10.5175 24.9895Z" fill="black"/>
</svg>
