<svg width="20" height="20" viewBox="0 0 20 20" fill="none" xmlns="http://www.w3.org/2000/svg">
<path d="M17.6667 18.6667V1.82857C17.6667 0.818683 16.848 0 15.8381 0H4.16191C3.15202 0 2.33334 0.818683 2.33334 1.82857V18.6667H0V20H20V18.6667H17.6667ZM16.3333 18.6667H10.6667V16.0001H9.33332V18.6667H3.66668V1.33334H16.3333V18.6667Z" fill="#2F80ED"/>
<path d="M6 12H7.33334V13.3334H6V12ZM9.33331 12H10.6667V13.3334H9.33331V12ZM12.6667 12H14V13.3334H12.6667V12ZM6 8.00004H7.33334V9.33331H6V8.00004ZM9.33331 8.00004H10.6667V9.33331H9.33331V8.00004ZM12.6667 8.00004H14V9.33331H12.6667V8.00004ZM6 4H7.33334V5.33334H6V4ZM9.33331 4H10.6667V5.33334H9.33331V4ZM12.6667 4H14V5.33334H12.6667V4Z" fill="#2F80ED"/>
</svg>
