<svg width="50" height="50" viewBox="0 0 50 50" fill="none" xmlns="http://www.w3.org/2000/svg">
<path d="M36.9327 20.052C36.8751 18.7742 36.6685 17.8999 36.3755 17.1361C36.0681 16.3483 35.6597 15.6757 34.992 15.0128C34.3243 14.3499 33.6565 13.9319 32.8687 13.6293C32.1049 13.3315 31.2306 13.1297 29.9528 13.0721C28.6701 13.0144 28.2618 13 25.0048 13C21.743 13 21.3347 13.0144 20.0568 13.0721C18.779 13.1297 17.9047 13.3363 17.1409 13.6293C16.3483 13.9367 15.6757 14.3451 15.0128 15.0128C14.3499 15.6805 13.9319 16.3483 13.6293 17.1361C13.3363 17.8999 13.1297 18.7742 13.0721 20.052C13.0144 21.3347 13 21.743 13 25C13 28.2618 13.0144 28.6701 13.0721 29.948C13.1297 31.2258 13.3363 32.1001 13.6293 32.8639C13.9367 33.6517 14.3451 34.3243 15.0128 34.9872C15.6757 35.6549 16.3483 36.0681 17.1361 36.3707C17.8999 36.6685 18.7742 36.8703 20.052 36.9279C21.3347 36.9856 21.743 37 25 37C28.2618 37 28.6701 36.9856 29.948 36.9279C31.2258 36.8703 32.1001 36.6637 32.8639 36.3707C33.6517 36.0633 34.3243 35.6549 34.9872 34.9872C35.6501 34.3195 36.0681 33.6517 36.3707 32.8639C36.6685 32.1001 36.8703 31.2258 36.9279 29.948C36.9856 28.6653 37 28.257 37 25C37 21.743 36.9904 21.3299 36.9327 20.052ZM34.7758 29.8519C34.723 31.024 34.526 31.6629 34.3627 32.0809C34.1465 32.6381 33.8823 33.0416 33.4596 33.4644C33.0368 33.8871 32.6381 34.1417 32.0761 34.3675C31.6533 34.5308 31.0144 34.7278 29.8471 34.7806C28.5837 34.8383 28.2042 34.8527 24.9952 34.8527C21.7862 34.8527 21.4067 34.8383 20.1433 34.7806C18.9712 34.7278 18.3323 34.5308 17.9143 34.3675C17.3571 34.1513 16.9536 33.8871 16.5308 33.4644C16.1081 33.0416 15.8535 32.6429 15.6277 32.0809C15.4644 31.6581 15.2674 31.0192 15.2146 29.8519C15.1569 28.5885 15.1425 28.209 15.1425 25C15.1425 21.791 15.1569 21.4115 15.2146 20.1481C15.2674 18.976 15.4644 18.3371 15.6277 17.9191C15.8439 17.3619 16.1081 16.9584 16.5308 16.5356C16.9536 16.1129 17.3523 15.8583 17.9143 15.6325C18.3371 15.4692 18.976 15.2722 20.1433 15.2194C21.4067 15.1617 21.7862 15.1473 24.9952 15.1473C28.2042 15.1473 28.5837 15.1617 29.8471 15.2194C31.0192 15.2722 31.6581 15.4692 32.0761 15.6325C32.6333 15.8487 33.0368 16.1129 33.4596 16.5356C33.8823 16.9584 34.1369 17.3571 34.3627 17.9191C34.526 18.3419 34.723 18.9808 34.7758 20.1481C34.8335 21.4115 34.8479 21.791 34.8479 25C34.8479 28.209 34.8287 28.5885 34.7758 29.8519Z" fill="black"/>
<path d="M24.9952 18.8318C21.5845 18.8318 18.8271 21.594 18.8271 24.9999C18.8271 28.4107 21.5893 31.1681 24.9952 31.1681C28.4011 31.1681 31.1634 28.401 31.1634 24.9999C31.1634 21.5892 28.406 18.8318 24.9952 18.8318ZM24.9952 29.0015C22.7855 29.0015 20.9936 27.2097 20.9936 24.9999C20.9936 22.7902 22.7855 20.9983 24.9952 20.9983C27.205 20.9983 28.9968 22.7902 28.9968 24.9999C28.9968 27.2097 27.205 29.0015 24.9952 29.0015Z" fill="black"/>
<path d="M31.4036 20.0329C32.1995 20.0329 32.8447 19.3877 32.8447 18.5918C32.8447 17.7959 32.1995 17.1506 31.4036 17.1506C30.6076 17.1506 29.9624 17.7959 29.9624 18.5918C29.9624 19.3877 30.6076 20.0329 31.4036 20.0329Z" fill="black"/>
<path fill-rule="evenodd" clip-rule="evenodd" d="M1 25C1 38.2548 11.7452 49 25 49C38.2548 49 49 38.2548 49 25C49 11.7452 38.2548 1 25 1C11.7452 1 1 11.7452 1 25ZM25 0C11.1929 0 0 11.1929 0 25C0 38.8071 11.1929 50 25 50C38.8071 50 50 38.8071 50 25C50 11.1929 38.8071 0 25 0Z" fill="black"/>
</svg>
