<svg width="20" height="20" viewBox="0 0 20 20" fill="none" xmlns="http://www.w3.org/2000/svg">
<path d="M10 0C4.48633 0 0 4.48633 0 10C0 11.6367 0.431641 13.168 1.13086 14.5312L0.046875 18.4141C-0.205078 19.3164 0.685547 20.207 1.58789 19.9531L5.4707 18.8691C6.83594 19.5684 8.36328 20 10 20C15.5137 20 20 15.5137 20 10C20 4.48633 15.5137 0 10 0ZM10 1.5C14.7031 1.5 18.5 5.29688 18.5 10C18.5 14.7031 14.7031 18.5 10 18.5C8.49805 18.5 7.0957 18.1094 5.87305 17.4277C5.69922 17.3301 5.49609 17.3066 5.30469 17.3594L1.61133 18.3906L2.64258 14.6992C2.69531 14.5078 2.67188 14.3047 2.57422 14.1328C1.89258 12.9062 1.5 11.502 1.5 10C1.5 5.29688 5.29688 1.5 10 1.5Z" fill="#2F80ED"/>
</svg>
