<svg width="30" height="30" viewBox="0 0 30 30" fill="none" xmlns="http://www.w3.org/2000/svg">
<path d="M28.0733 16.6755V12.8892C28.0719 12.2243 27.7972 11.587 27.3094 11.1168C26.8216 10.6466 26.1604 10.3819 25.4705 10.3805H24L25.7925 8.65803C25.8906 8.5589 25.9461 8.42773 25.9481 8.29078C25.9485 8.2227 25.935 8.15522 25.9083 8.0922C25.8816 8.02917 25.8422 7.97185 25.7925 7.92352L18.8533 1.23541C18.8034 1.18692 18.7441 1.14844 18.6787 1.12218C18.6133 1.09592 18.5431 1.0824 18.4723 1.0824C18.4014 1.0824 18.3313 1.09592 18.2659 1.12218C18.2005 1.14844 18.1411 1.18692 18.0912 1.23541L16.7979 2.48199L11.7478 0.0508896C11.618 -0.00648234 11.4709 -0.0156915 11.3345 0.0250268C11.201 0.07084 11.0899 0.163073 11.0233 0.283655L5.80143 10.3805H2.5814C1.89524 10.3873 1.2395 10.6544 0.756306 11.124C0.273108 11.5936 0.00137562 12.2278 0 12.8892V27.4913C0.00141806 28.1562 0.276103 28.7935 0.763927 29.2637C1.25175 29.7339 1.91298 29.9986 2.60286 30H25.4705C26.1604 29.9986 26.8216 29.7339 27.3094 29.2637C27.7972 28.7935 28.0719 28.1562 28.0733 27.4913V22.836C28.5888 22.8186 29.0773 22.6097 29.4364 22.2529C29.7956 21.8961 29.9975 21.4193 30 20.9222V18.5945C30.0003 18.0961 29.7994 17.6172 29.4398 17.259C29.0802 16.9009 28.5902 16.6916 28.0733 16.6755ZM18.4723 2.33199L24.6547 8.27526L22.508 10.3443H20.5331L21.0698 9.85806C21.1201 9.80997 21.16 9.75276 21.1872 9.68973C21.2145 9.6267 21.2285 9.55909 21.2285 9.49081C21.2285 9.42252 21.2145 9.35492 21.1872 9.29188C21.16 9.22885 21.1201 9.17164 21.0698 9.12356C20.951 9.00964 20.8567 8.87423 20.7924 8.7251C20.7281 8.57597 20.695 8.41607 20.695 8.25457C20.695 8.09307 20.7281 7.93316 20.7924 7.78403C20.8567 7.6349 20.951 7.49949 21.0698 7.38558C21.1201 7.33749 21.16 7.28028 21.1872 7.21725C21.2145 7.15422 21.2285 7.08661 21.2285 7.01832C21.2285 6.95004 21.2145 6.88243 21.1872 6.8194C21.16 6.75637 21.1201 6.69916 21.0698 6.65107L20.1252 5.81312C20.0247 5.71678 19.8886 5.6627 19.7469 5.6627C19.6051 5.6627 19.4691 5.71678 19.3685 5.81312C19.2508 5.92744 19.1107 6.01818 18.9565 6.0801C18.8022 6.14202 18.6367 6.17389 18.4696 6.17389C18.3025 6.17389 18.137 6.14202 17.9827 6.0801C17.8284 6.01818 17.6884 5.92744 17.5707 5.81312C17.5208 5.76464 17.4614 5.72616 17.396 5.6999C17.3306 5.67364 17.2605 5.66012 17.1896 5.66012C17.1188 5.66012 17.0486 5.67364 16.9832 5.6999C16.9178 5.72616 16.8585 5.76464 16.8086 5.81312L12.0751 10.3805H10.1216L18.4723 2.33199ZM13.6476 10.3443C14.0058 10.0056 14.4875 9.81591 14.9893 9.81591C15.491 9.81591 15.9728 10.0056 16.3309 10.3443L16.3739 10.396H13.5885L13.6476 10.3443ZM17.6887 10.396C17.5468 10.1034 17.3524 9.83727 17.1145 9.60978C16.6131 9.13432 15.9535 8.84487 15.2522 8.79251L17.2326 6.88384C17.6046 7.10437 18.0328 7.22113 18.4696 7.22113C18.9064 7.22113 19.3346 7.10437 19.7066 6.88384L19.9481 7.11143C19.7215 7.4607 19.599 7.86334 19.5939 8.27526C19.5941 8.69668 19.7189 9.10934 19.9535 9.46494L19.0197 10.365L17.6887 10.396ZM10.8891 8.17698L12.0698 5.89071C12.4777 5.98295 12.9038 5.96867 13.3041 5.84933L10.8891 8.17698ZM11.7478 1.20954L15.9982 3.2527L14.9678 4.24583L14.4902 4.0079C14.4268 3.97689 14.3577 3.95832 14.2869 3.95325C14.216 3.94818 14.1448 3.95672 14.0774 3.97838C14.0101 4.00003 13.9478 4.03436 13.8943 4.07939C13.8407 4.12441 13.797 4.17923 13.7657 4.24066C13.6915 4.38449 13.5886 4.51281 13.4629 4.61825C13.3372 4.72369 13.1911 4.80418 13.0331 4.85512C12.8751 4.90605 12.7081 4.92643 12.5419 4.91507C12.3757 4.90372 12.2134 4.86086 12.0644 4.78895C11.9377 4.7276 11.7909 4.7171 11.6561 4.75975C11.5214 4.80239 11.4096 4.89472 11.3453 5.01654L8.55456 10.3805H7.00358L11.7478 1.20954ZM25.4705 28.9655H2.60286C2.19764 28.9641 1.80943 28.8084 1.52289 28.5322C1.23636 28.256 1.07476 27.8819 1.07335 27.4913V12.8892C1.07476 12.4986 1.23636 12.1244 1.52289 11.8483C1.80943 11.5721 2.19764 11.4164 2.60286 11.415H25.4705C25.8757 11.4164 26.2639 11.5721 26.5505 11.8483C26.837 12.1244 26.9986 12.4986 27 12.8892V16.6703H22.9964C22.5694 16.6703 22.1599 16.8338 21.858 17.1248C21.556 17.4158 21.3864 17.8105 21.3864 18.2221V21.2791C21.3864 21.6906 21.556 22.0853 21.858 22.3763C22.1599 22.6673 22.5694 22.8308 22.9964 22.8308H27V27.4861C27 27.8776 26.839 28.2531 26.5523 28.5304C26.2657 28.8077 25.8766 28.9641 25.4705 28.9655ZM22.4597 19.1738H22.9481C23.097 19.1874 23.2354 19.2541 23.336 19.3607C23.4367 19.4674 23.4925 19.6064 23.4925 19.7506C23.4925 19.8948 23.4367 20.0338 23.336 20.1404C23.2354 20.2471 23.097 20.3137 22.9481 20.3273H22.4597V19.1738ZM28.8998 20.9118C28.8984 21.146 28.8013 21.3702 28.6295 21.5358C28.4577 21.7013 28.2251 21.795 27.9821 21.7963H22.9964C22.8678 21.7979 22.7428 21.7549 22.6443 21.6752C22.5458 21.5954 22.4803 21.4842 22.4597 21.3618H22.932C23.359 21.3385 23.7606 21.1586 24.0543 20.859C24.348 20.5594 24.5117 20.1628 24.5117 19.7506C24.5117 19.3384 24.348 18.9418 24.0543 18.6422C23.7606 18.3426 23.359 18.1627 22.932 18.1393H22.4597C22.4803 18.0169 22.5458 17.9057 22.6443 17.826C22.7428 17.7462 22.8678 17.7032 22.9964 17.7048H28.0089C28.2514 17.7048 28.484 17.7973 28.656 17.9621C28.8279 18.1268 28.9252 18.3505 28.9267 18.5842L28.8998 20.9118Z" fill="black"/>
</svg>
