<svg width="30" height="30" viewBox="0 0 30 30" fill="none" xmlns="http://www.w3.org/2000/svg">
<path d="M15 30C14.8466 29.9997 14.6953 29.9637 14.5582 29.8948L0.551832 22.8924C0.386812 22.81 0.248012 22.683 0.151051 22.5259C0.0540893 22.3688 0.00281293 22.1876 0.00299119 22.0029V7.99607C0.00318134 7.81166 0.054631 7.63095 0.151572 7.4742C0.248513 7.31745 0.387113 7.19085 0.551832 7.10861L14.5582 0.1042C14.6954 0.0356694 14.8467 0 15 0C15.1534 0 15.3046 0.0356694 15.4419 0.1042L29.4482 7.10861C29.6129 7.19085 29.7515 7.31745 29.8485 7.4742C29.9454 7.63095 29.9968 7.81166 29.997 7.99607V22.0029C29.9972 22.1876 29.9459 22.3688 29.849 22.5259C29.752 22.683 29.6132 22.81 29.4482 22.8924L15.4419 29.8948C15.3047 29.9637 15.1534 29.9997 15 30ZM1.98437 21.3894L15 27.8975L28.0157 21.3894V8.61948L15 2.10149L1.98437 8.61948V21.3894Z" fill="black"/>
<path d="M15 15.9654C14.8467 15.9657 14.6955 15.9303 14.5582 15.8621L0.553799 8.88551C0.317327 8.76835 0.136988 8.56186 0.0524536 8.31147C-0.0320808 8.06108 -0.0138856 7.78729 0.103037 7.55034C0.219959 7.31339 0.42603 7.13269 0.675918 7.04798C0.925805 6.96328 1.19904 6.98151 1.43551 7.09867L15 13.8489L28.5645 7.09867C28.6816 7.04066 28.8089 7.00632 28.9393 6.99763C29.0696 6.98893 29.2004 7.00604 29.3241 7.04798C29.4478 7.08992 29.5621 7.15588 29.6604 7.24207C29.7587 7.32826 29.8391 7.43302 29.897 7.55034C29.9549 7.66767 29.9891 7.79527 29.9978 7.92586C30.0065 8.05646 29.9894 8.18749 29.9475 8.31147C29.9057 8.43545 29.8399 8.54996 29.7539 8.64845C29.6678 8.74694 29.5633 8.82749 29.4462 8.88551L15.4418 15.8621C15.3045 15.9303 15.1533 15.9657 15 15.9654Z" fill="black"/>
<path d="M22.0022 12.4771C21.8496 12.4771 21.6991 12.4417 21.5623 12.3738L7.556 5.39722C7.31952 5.28007 7.13919 5.07358 7.05465 4.82319C6.97012 4.57279 6.98831 4.29901 7.10523 4.06206C7.22216 3.82511 7.42823 3.64441 7.67812 3.5597C7.928 3.475 8.20124 3.49323 8.43771 3.61039L22.444 10.6049C22.6444 10.7044 22.8053 10.8689 22.9005 11.0717C22.9958 11.2744 23.0197 11.5035 22.9685 11.7216C22.9173 11.9398 22.7939 12.1341 22.6185 12.2731C22.443 12.412 22.2258 12.4874 22.0022 12.487V12.4771Z" fill="black"/>
<path d="M15 30C14.7372 30 14.4852 29.8954 14.2994 29.7092C14.1137 29.5231 14.0093 29.2706 14.0093 29.0073V14.9727C14.0093 14.7094 14.1137 14.4569 14.2994 14.2707C14.4852 14.0846 14.7372 13.98 15 13.98C15.2627 13.98 15.5147 14.0846 15.7005 14.2707C15.8863 14.4569 15.9907 14.7094 15.9907 14.9727V29.0073C15.9907 29.2706 15.8863 29.5231 15.7005 29.7092C15.5147 29.8954 15.2627 30 15 30Z" fill="black"/>
</svg>
