<svg width="30" height="30" viewBox="0 0 30 30" fill="none" xmlns="http://www.w3.org/2000/svg">
<path fill-rule="evenodd" clip-rule="evenodd" d="M12.9605 2.43449C14.0477 2.59484 15.0673 2.96255 15.978 3.49613C16.6402 3.06379 17.4314 2.8125 18.2813 2.8125H19.2188C21.5487 2.8125 23.4375 4.7013 23.4375 7.03125V7.96875C23.4375 9.97926 22.0311 11.6613 20.1485 12.0847C20.0887 13.4842 19.6881 14.7955 19.0275 15.9375H20C23.9695 15.9375 27.1875 19.1555 27.1875 23.125C27.1875 23.2976 27.0476 23.4375 26.875 23.4375H23.3792C23.6616 24.3324 23.8368 25.2749 23.8894 26.25H26.875C28.6009 26.25 30 24.8509 30 23.125C30 18.7629 27.2071 15.0532 23.3119 13.6865C25.091 12.4106 26.25 10.325 26.25 7.96875V7.03125C26.25 3.148 23.102 0 19.2188 0H18.2813C16.1554 0 14.2499 0.943449 12.9605 2.43449ZM10.7812 3.75C6.898 3.75 3.75 6.898 3.75 10.7812V11.7188C3.75 14.075 4.90905 16.1606 6.68811 17.4365C2.79294 18.8032 0 22.5129 0 26.875C0 28.6009 1.39911 30 3.125 30H19.375C21.1009 30 22.5 28.6009 22.5 26.875C22.5 22.5129 19.7071 18.8032 15.8119 17.4365C17.591 16.1606 18.75 14.075 18.75 11.7188V10.7812C18.75 6.898 15.602 3.75 11.7188 3.75H10.7812ZM6.5625 10.7812C6.5625 8.4513 8.4513 6.5625 10.7812 6.5625H11.7188C14.0487 6.5625 15.9375 8.4513 15.9375 10.7812V11.7188C15.9375 14.0487 14.0487 15.9375 11.7188 15.9375H10.7812C8.4513 15.9375 6.5625 14.0487 6.5625 11.7188V10.7812ZM2.8125 26.875C2.8125 22.9055 6.03045 19.6875 10 19.6875H12.5C16.4695 19.6875 19.6875 22.9055 19.6875 26.875C19.6875 27.0476 19.5476 27.1875 19.375 27.1875H3.125C2.95241 27.1875 2.8125 27.0476 2.8125 26.875Z" fill="black"/>
</svg>
