<svg width="46" height="34" viewBox="0 0 46 34" fill="none" xmlns="http://www.w3.org/2000/svg">
<path d="M45.7518 8.4506L45.6945 8.06907L45.6349 8.08269C45.2274 6.19553 44.2887 4.46119 42.9274 3.08035C41.5662 1.69951 39.8379 0.72861 37.9427 0.279984C36.0475 -0.168642 34.0628 -0.0766566 32.2181 0.545298C30.3735 1.16725 28.7444 2.29376 27.5193 3.79447C26.2941 5.29517 25.5231 7.10875 25.2954 9.02536C25.0676 10.942 25.3925 12.8833 26.2324 14.6246C27.0723 16.366 28.3928 17.8363 30.0413 18.8653C31.6897 19.8944 33.5987 20.4402 35.5473 20.4395C36.0587 20.4395 36.5494 20.3623 37.0378 20.2919C36.8796 20.8188 36.7168 21.3548 36.4554 21.8362C36.194 22.5357 35.7858 23.1421 35.3799 23.753C35.0405 24.4139 34.442 24.8613 34.0017 25.4268C33.5408 25.9764 32.9125 26.342 32.4149 26.7985C31.9264 27.2754 31.2866 27.5139 30.7775 27.85C30.2455 28.152 29.7823 28.4859 29.287 28.6448L28.051 29.149L26.964 29.5964L28.0739 34L29.4429 33.673C29.8809 33.564 30.4152 33.4368 31.0229 33.2846C31.6444 33.1711 32.3071 32.8599 33.0455 32.576C33.7724 32.2513 34.6186 32.0355 35.4028 31.5155C36.1917 31.0204 37.1021 30.607 37.9047 29.9439C38.682 29.2603 39.6199 28.6676 40.3125 27.8C41.0692 26.987 41.8168 26.1331 42.3969 25.161C43.0688 24.2345 43.5252 23.217 44.0067 22.2109C44.4424 21.2049 44.7933 20.1761 45.0799 19.1768C45.6234 17.1737 45.8665 15.2706 45.9605 13.6422C46.0385 12.0116 45.9926 10.6558 45.8963 9.6747C45.8641 9.26498 45.8159 8.85664 45.7518 8.4506ZM20.5272 8.4506L20.4698 8.06907L20.4102 8.08269C20.0027 6.19553 19.0641 4.46119 17.7028 3.08035C16.3415 1.69951 14.6133 0.72861 12.7181 0.279984C10.8229 -0.168642 8.8381 -0.0766566 6.99347 0.545298C5.14884 1.16725 3.51972 2.29376 2.2946 3.79447C1.06949 5.29517 0.29846 7.10875 0.0707232 9.02536C-0.157014 10.942 0.167851 12.8833 1.00773 14.6246C1.84761 16.366 3.16817 17.8363 4.81663 18.8653C6.46508 19.8944 8.37405 20.4402 10.3227 20.4395C10.834 20.4395 11.3248 20.3623 11.8132 20.2919C11.655 20.8188 11.4922 21.3548 11.2307 21.8362C10.9693 22.5357 10.5611 23.1421 10.1553 23.753C9.81586 24.4139 9.21735 24.8613 8.77707 25.4268C8.31615 25.9764 7.68782 26.342 7.19021 26.7985C6.70177 27.2754 6.06198 27.5139 5.5529 27.85C5.02089 28.152 4.55767 28.4859 4.06235 28.6448L2.82634 29.149C2.13611 29.4284 1.74168 29.5919 1.74168 29.5919L2.85157 33.9955L4.22058 33.6684C4.65857 33.5594 5.19287 33.4322 5.80056 33.2801C6.422 33.1665 7.08472 32.8554 7.82312 32.5715C8.55005 32.2467 9.39622 32.031 10.1805 31.5109C10.9693 31.0158 11.8797 30.6025 12.6823 29.9394C13.4597 29.2558 14.3976 28.663 15.0901 27.7955C15.8469 26.9824 16.5944 26.1285 17.1746 25.1565C17.8465 24.2299 18.3028 23.2125 18.7844 22.2064C19.2201 21.2003 19.5709 20.1715 19.8576 19.1723C20.401 17.1692 20.6441 15.266 20.7381 13.6377C20.8161 12.0071 20.7702 10.6513 20.6739 9.67016C20.6397 9.26204 20.5907 8.85526 20.5272 8.4506Z" fill="#2F80ED"/>
</svg>
