<svg width="50" height="50" viewBox="0 0 50 50" fill="none" xmlns="http://www.w3.org/2000/svg">
<path fill-rule="evenodd" clip-rule="evenodd" d="M1 25C1 38.2548 11.7452 49 25 49C38.2548 49 49 38.2548 49 25C49 11.7452 38.2548 1 25 1C11.7452 1 1 11.7452 1 25ZM25 0C11.1929 0 0 11.1929 0 25C0 38.8071 11.1929 50 25 50C38.8071 50 50 38.8071 50 25C50 11.1929 38.8071 0 25 0Z" fill="black"/>
<path fill-rule="evenodd" clip-rule="evenodd" d="M14.037 24.2933C20.2385 21.5914 24.3738 19.8102 26.4429 18.9496C32.3506 16.4924 33.5782 16.0655 34.3783 16.0514C34.5543 16.0483 34.9478 16.0919 35.2026 16.2987C35.4178 16.4734 35.4771 16.7093 35.5054 16.8748C35.5337 17.0404 35.569 17.4176 35.541 17.7123C35.2208 21.076 33.8356 29.2389 33.1308 33.0064C32.8326 34.6006 32.2455 35.1351 31.677 35.1874C30.4417 35.301 29.5036 34.371 28.3071 33.5866C26.4348 32.3593 25.3771 31.5953 23.5597 30.3977C21.4594 29.0136 22.8209 28.2529 24.0179 27.0097C24.3311 26.6844 29.7742 21.7335 29.8795 21.2844C29.8927 21.2282 29.9049 21.0189 29.7805 20.9083C29.6561 20.7978 29.4726 20.8356 29.3401 20.8656C29.1523 20.9082 26.1613 22.8852 20.367 26.7965C19.518 27.3794 18.7491 27.6635 18.0601 27.6486C17.3005 27.6322 15.8394 27.2191 14.7533 26.8661C13.4211 26.433 12.3622 26.2041 12.4544 25.4686C12.5025 25.0855 13.03 24.6938 14.037 24.2933Z" fill="url(#paint0_linear_125_42)"/>
<defs>
<linearGradient id="paint0_linear_125_42" x1="24" y1="16.0513" x2="24" y2="35.0549" gradientUnits="userSpaceOnUse">
<stop/>
</linearGradient>
</defs>
</svg>
