<svg width="50" height="50" viewBox="0 0 50 50" fill="none" xmlns="http://www.w3.org/2000/svg">
<path fill-rule="evenodd" clip-rule="evenodd" d="M25 4.16667C13.4941 4.16667 4.16667 13.4941 4.16667 25C4.16667 36.5059 13.4941 45.8333 25 45.8333C36.5059 45.8333 45.8333 36.5059 45.8333 25C45.8333 13.4941 36.5059 4.16667 25 4.16667ZM0 25C0 11.1929 11.1929 0 25 0C38.8071 0 50 11.1929 50 25C50 38.8071 38.8071 50 25 50C11.1929 50 0 38.8071 0 25ZM15.888 15.888C16.7016 15.0744 18.0207 15.0744 18.8342 15.888L25 22.0537L31.1658 15.888C31.9793 15.0744 33.2984 15.0744 34.112 15.888C34.9256 16.7016 34.9256 18.0207 34.112 18.8342L27.9463 25L34.112 31.1658C34.9256 31.9793 34.9256 33.2984 34.112 34.112C33.2984 34.9256 31.9793 34.9256 31.1658 34.112L25 27.9463L18.8342 34.112C18.0207 34.9256 16.7016 34.9256 15.888 34.112C15.0744 33.2984 15.0744 31.9793 15.888 31.1658L22.0537 25L15.888 18.8342C15.0744 18.0207 15.0744 16.7016 15.888 15.888Z" fill="#FF0000"/>
</svg>
