<svg width="50" height="50" viewBox="0 0 50 50" fill="none" xmlns="http://www.w3.org/2000/svg">
<path fill-rule="evenodd" clip-rule="evenodd" d="M25 4.16667C13.4941 4.16667 4.16667 13.4941 4.16667 25C4.16667 36.5059 13.4941 45.8333 25 45.8333C36.5059 45.8333 45.8333 36.5059 45.8333 25C45.8333 13.4941 36.5059 4.16667 25 4.16667ZM0 25C0 11.1929 11.1929 0 25 0C38.8071 0 50 11.1929 50 25C50 38.8071 38.8071 50 25 50C11.1929 50 0 38.8071 0 25ZM35.213 14.2589C36.1593 14.9135 36.3957 16.2112 35.7411 17.1575L23.2505 35.213C22.869 35.7644 22.2455 36.0985 21.5751 36.1108C20.9048 36.123 20.2695 35.8118 19.8682 35.2747L14.3032 27.826C13.6146 26.9042 13.8036 25.5987 14.7253 24.9101C15.6471 24.2214 16.9526 24.4104 17.6412 25.3322L21.4721 30.4599L32.3145 14.787C32.9691 13.8407 34.2668 13.6043 35.213 14.2589Z" fill="#05FF00"/>
</svg>
