<svg width="265" height="78" viewBox="0 0 265 78" fill="none" xmlns="http://www.w3.org/2000/svg">
<path fill-rule="evenodd" clip-rule="evenodd" d="M72.7952 40.8755L67.8023 30.8921C67.5902 30.4656 67.1556 30.1956 66.6794 30.1942H65.4262V14.1143C65.4275 13.7211 65.2182 13.2724 64.9667 12.8369L57.6985 0.644531C57.4724 0.265067 57.0639 0.0318826 56.6222 0.0302196L15.0997 0C14.6585 0.00109606 14.2501 0.233557 14.0234 0.611774L6.47259 13.158C6.33698 13.3987 6.29546 13.6226 6.29546 13.91V49.0621C5.87256 49.063 5.47837 49.276 5.24626 49.6297L0.214005 57.1707C0.0992701 57.371 8.34319e-06 57.6305 8.34319e-06 57.8661V76.7371C-0.00250769 77.4357 0.564363 78.0027 1.26298 78C24.7469 78.0001 48.2277 78 71.7121 78C72.4108 78.0027 72.9778 77.4357 72.9751 76.7371V41.5112C72.9751 41.2293 72.8688 41 72.7953 40.8724L72.7952 40.8755ZM15.8147 2.51919L31.3366 2.5343L30.9852 6.29375H13.5443L15.8147 2.51919ZM40.3961 2.5381L55.8983 2.55321L58.1343 6.29548H40.772L40.3961 2.5381ZM33.8601 2.5494H37.8628L38.8751 12.5526H32.9214L33.8601 2.5494ZM12.0282 8.81029H30.7493L30.4004 12.5526H9.77502L12.0282 8.81029ZM41.0251 8.81029H59.6381L61.8741 12.5526H41.3986L41.0251 8.81029ZM8.81428 15.0784H30.2014V21.3934C30.2015 22.3561 31.2375 22.9619 32.0762 22.4893L35.8577 20.3244L39.6368 22.4893C40.4776 22.9726 41.5254 22.3634 41.5215 21.3934V15.0784H62.9085V30.1974C54.0939 30.2001 45.3063 30.1974 36.4893 30.1974C36.0122 30.1978 35.5764 30.468 35.3639 30.8952L30.3317 40.9621C30.2146 41.2002 30.1759 41.4696 30.2211 41.7312V49.0682H8.81436L8.81428 15.0784ZM32.7175 15.0784H39.0053V19.2213L36.4794 17.7814C36.0936 17.5618 35.6194 17.5618 35.2336 17.7814L32.7175 19.2213V15.0784ZM12.5836 17.624C11.8926 17.6266 11.3331 18.1862 11.3304 18.8772C11.3329 19.5682 11.8926 20.1277 12.5836 20.1304H21.3875C22.0823 20.1332 22.6478 19.5721 22.6505 18.8772C22.648 18.1824 22.0823 17.6213 21.3875 17.624H12.5836ZM49.0723 17.624C48.3775 17.6215 47.8121 18.1824 47.8093 18.8772V23.9095C47.8106 24.6053 48.3766 25.1677 49.0723 25.1651C52.4247 25.1651 55.7771 25.1651 59.1294 25.1651C59.8245 25.1677 60.39 24.6045 60.3924 23.9095V18.8772C60.3899 18.1822 59.8245 17.6214 59.1294 17.624C55.7771 17.624 52.4247 17.624 49.0723 17.624ZM50.3255 20.1304H52.8416V22.6465H50.3255V20.1304ZM55.3602 20.1304H57.8763V22.6465H55.3602V20.1304ZM12.5836 22.6465C11.8887 22.6492 11.3277 23.2147 11.3304 23.9095C11.3317 24.6014 11.8916 25.1624 12.5836 25.1651H18.8714C19.5672 25.1679 20.133 24.6053 20.1344 23.9095C20.1369 23.2109 19.5701 22.6437 18.8714 22.6465H12.5836ZM37.2681 32.7134H47.6422L46.7012 40.2643H33.489L34.7471 37.7482H44.0376C44.729 37.7458 45.2908 37.1865 45.2932 36.495C45.2957 35.8 44.7326 35.2344 44.0376 35.232H36.0076L37.2681 32.7134ZM50.178 32.7134H52.9915L53.9375 40.2643H49.2394L50.178 32.7134ZM55.5248 32.7134H65.8989L67.1594 35.232H59.1294C58.4344 35.2345 57.8736 35.8 57.8763 36.495C57.8788 37.1865 58.438 37.7458 59.1294 37.7482H68.4199L69.6805 40.2643H56.4659L55.5248 32.7134ZM32.7371 42.7805H46.5562V50.0438C46.5637 51.0119 47.6154 51.6097 48.4506 51.12L51.5884 49.2723L54.7189 51.12C55.5541 51.6097 56.6062 51.0119 56.6133 50.0438V42.7805H70.4594V75.4901H56.6133V71.7184C56.6158 71.0236 56.055 70.4582 55.3602 70.4554H47.8364C47.1377 70.4528 46.5707 71.0198 46.5734 71.7184V75.4901H32.7371V42.7805ZM49.0723 42.7805H54.1046V47.8421L52.2199 46.7291C51.8269 46.4985 51.3401 46.4985 50.9471 46.7291L49.0723 47.8323V42.7805ZM36.4892 45.2991C35.7973 45.3004 35.2364 45.8602 35.2336 46.5522V51.5844C35.2311 52.2802 35.7935 52.846 36.4892 52.8474H41.5215C42.2163 52.8447 42.7773 52.2792 42.7746 51.5844V46.5522C42.7721 45.8612 42.2124 45.3018 41.5215 45.2991H36.4892ZM37.7424 47.8152H40.2585V50.3312H37.7424V47.8152ZM6.9665 51.5844H14.6156L12.9374 56.6191H3.61248L6.9665 51.5844ZM17.2644 51.5844H19.6503L17.9696 56.6191H15.5862L17.2644 51.5844ZM22.3016 51.5844H30.2014V56.6191H20.6234L22.3016 51.5844ZM2.51659 59.1353H12.5836V64.17C12.5848 65.1041 13.5687 65.7106 14.4043 65.2929L16.3627 64.3174L18.3136 65.2929C19.1492 65.7104 20.1325 65.1039 20.1344 64.17V59.1353H30.2014V75.4901H2.51659V59.1353ZM15.0997 59.1353H17.6183V62.1354L16.9204 61.7817C16.5669 61.6052 16.1511 61.6052 15.7975 61.7817L15.0997 62.1354V59.1353ZM36.4892 66.686C35.7973 66.6875 35.2363 67.2473 35.2336 67.9392V71.7184C35.2349 72.4113 35.7963 72.9726 36.4892 72.9739C37.1811 72.9713 37.741 72.4103 37.7424 71.7184V67.9392C37.7399 67.2483 37.1802 66.6888 36.4892 66.686ZM6.29569 67.9392C5.59704 67.9365 5.02999 68.5036 5.03272 69.2022V71.7184C5.03398 72.4141 5.59993 72.9767 6.29569 72.9739C6.98858 72.9725 7.54995 72.4113 7.5513 71.7184V69.2022C7.55382 68.5064 6.99146 67.9406 6.29569 67.9392ZM11.3304 69.2022C10.6356 69.1995 10.0701 69.7606 10.0674 70.4554V71.7184C10.0687 72.4142 10.6346 72.9767 11.3304 72.9739C12.0223 72.9711 12.5822 72.4103 12.5836 71.7184V70.4554C12.581 69.7644 12.0214 69.2049 11.3304 69.2022ZM41.5215 69.2022C40.8267 69.1995 40.2612 69.7606 40.2585 70.4554V71.7184C40.2598 72.4141 40.8257 72.9767 41.5215 72.9739C42.2134 72.9713 42.7733 72.4103 42.7746 71.7184V70.4554C42.7721 69.7644 42.2124 69.2049 41.5215 69.2022ZM49.092 72.9739H54.1046V75.4901H49.092V72.9739Z" fill="#2F80ED"/>
<path d="M97.08 31.32C95.608 31.32 94.328 31.16 93.24 30.84C92.152 30.4987 91.256 30.0507 90.552 29.496C89.848 28.9413 89.2933 28.312 88.888 27.608C88.504 26.8827 88.28 26.136 88.216 25.368C88.1947 25.176 88.248 25.0267 88.376 24.92C88.5253 24.792 88.696 24.728 88.888 24.728H91.768C91.9813 24.728 92.1627 24.7813 92.312 24.888C92.4613 24.9733 92.5893 25.1333 92.696 25.368C92.952 26.0507 93.432 26.6053 94.136 27.032C94.84 27.4587 95.7893 27.672 96.984 27.672C97.88 27.672 98.6693 27.544 99.352 27.288C100.035 27.032 100.568 26.6693 100.952 26.2C101.357 25.7093 101.56 25.1333 101.56 24.472C101.56 23.4267 101.176 22.6267 100.408 22.072C99.6613 21.5173 98.616 21.24 97.272 21.24H94.968C94.7333 21.24 94.5413 21.1653 94.392 21.016C94.264 20.8453 94.2 20.6533 94.2 20.44V18.584C94.2 18.3493 94.264 18.1573 94.392 18.008C94.5413 17.8587 94.7333 17.784 94.968 17.784H97.176C98.2853 17.784 99.1813 17.5493 99.864 17.08C100.568 16.6107 100.92 15.864 100.92 14.84C100.92 14.264 100.749 13.7627 100.408 13.336C100.088 12.888 99.64 12.5467 99.064 12.312C98.488 12.0773 97.8267 11.96 97.08 11.96C95.9493 11.96 95.0213 12.152 94.296 12.536C93.5707 12.92 93.1227 13.5067 92.952 14.296C92.8667 14.5093 92.76 14.6693 92.632 14.776C92.504 14.8613 92.3333 14.904 92.12 14.904H89.144C88.952 14.904 88.7813 14.84 88.632 14.712C88.504 14.584 88.4507 14.424 88.472 14.232C88.536 13.4427 88.7493 12.696 89.112 11.992C89.496 11.2667 90.04 10.6267 90.744 10.072C91.448 9.51733 92.3227 9.08 93.368 8.76C94.4347 8.44 95.6933 8.28 97.144 8.28C98.936 8.28 100.44 8.57867 101.656 9.176C102.872 9.752 103.8 10.5093 104.44 11.448C105.101 12.3653 105.432 13.3787 105.432 14.488C105.432 15.064 105.357 15.6507 105.208 16.248C105.059 16.824 104.792 17.368 104.408 17.88C104.045 18.392 103.544 18.84 102.904 19.224C103.672 19.608 104.291 20.088 104.76 20.664C105.251 21.2187 105.603 21.8373 105.816 22.52C106.051 23.2027 106.168 23.896 106.168 24.6C106.168 25.944 105.795 27.1173 105.048 28.12C104.323 29.1227 103.277 29.912 101.912 30.488C100.547 31.0427 98.936 31.32 97.08 31.32ZM108.808 31C108.637 31 108.477 30.936 108.328 30.808C108.2 30.68 108.136 30.52 108.136 30.328C108.136 30.2427 108.157 30.1467 108.2 30.04L115.911 9.4C115.976 9.18667 116.093 9.00533 116.264 8.856C116.456 8.68533 116.712 8.6 117.032 8.6H120.52C120.84 8.6 121.085 8.68533 121.256 8.856C121.426 9.00533 121.554 9.18667 121.64 9.4L129.352 30.04C129.373 30.1467 129.384 30.2427 129.384 30.328C129.384 30.52 129.32 30.68 129.192 30.808C129.064 30.936 128.914 31 128.744 31H125.96C125.661 31 125.437 30.936 125.288 30.808C125.16 30.6587 125.074 30.52 125.032 30.392L123.528 26.488H114.024L112.52 30.392C112.477 30.52 112.381 30.6587 112.232 30.808C112.104 30.936 111.89 31 111.592 31H108.808ZM115.144 22.808H122.408L118.76 12.92L115.144 22.808ZM133.139 31C132.926 31 132.744 30.9253 132.595 30.776C132.446 30.6267 132.371 30.4453 132.371 30.232V9.4C132.371 9.16533 132.446 8.97333 132.595 8.824C132.744 8.67467 132.926 8.6 133.139 8.6H146.195C146.43 8.6 146.622 8.67467 146.771 8.824C146.92 8.97333 146.995 9.16533 146.995 9.4V11.64C146.995 11.8533 146.92 12.0347 146.771 12.184C146.622 12.3333 146.43 12.408 146.195 12.408H136.819V30.232C136.819 30.4453 136.744 30.6267 136.595 30.776C136.467 30.9253 136.286 31 136.051 31H133.139ZM151.282 31C151.069 31 150.887 30.9253 150.738 30.776C150.589 30.6267 150.514 30.4453 150.514 30.232V27.864C150.514 27.6293 150.589 27.4373 150.738 27.288C150.887 27.1387 151.069 27.064 151.282 27.064H152.466C153.085 27.064 153.618 26.936 154.066 26.68C154.514 26.4027 154.93 25.976 155.314 25.4C155.698 24.8027 156.082 24.0453 156.466 23.128L162.578 9.208C162.642 8.99467 162.749 8.84533 162.898 8.76C163.069 8.65333 163.25 8.6 163.442 8.6H166.418C166.589 8.6 166.738 8.664 166.866 8.792C167.015 8.92 167.09 9.06933 167.09 9.24C167.09 9.34667 167.079 9.44267 167.058 9.528C167.037 9.61333 167.005 9.69866 166.962 9.784L160.53 24.472C159.997 25.6453 159.495 26.648 159.026 27.48C158.557 28.2907 158.045 28.9627 157.49 29.496C156.935 30.008 156.274 30.392 155.506 30.648C154.759 30.8827 153.853 31 152.786 31H151.282ZM156.242 25.4L147.698 9.624C147.634 9.496 147.602 9.38933 147.602 9.304C147.602 9.112 147.677 8.952 147.826 8.824C147.975 8.67467 148.135 8.6 148.306 8.6H151.442C151.634 8.6 151.794 8.65333 151.922 8.76C152.071 8.84533 152.189 8.99467 152.274 9.208L158.578 20.984L156.242 25.4ZM170.327 31C170.113 31 169.932 30.9253 169.783 30.776C169.633 30.6267 169.559 30.4453 169.559 30.232V9.4C169.559 9.16533 169.633 8.97333 169.783 8.824C169.932 8.67467 170.113 8.6 170.327 8.6H184.983C185.217 8.6 185.399 8.67467 185.527 8.824C185.676 8.97333 185.751 9.16533 185.751 9.4V11.64C185.751 11.8533 185.676 12.0347 185.527 12.184C185.399 12.3333 185.217 12.408 184.983 12.408H174.007V17.528H179.415C181.825 17.528 183.713 18.1253 185.079 19.32C186.444 20.5147 187.127 22.136 187.127 24.184C187.127 25.0587 186.956 25.912 186.615 26.744C186.295 27.5547 185.815 28.28 185.175 28.92C184.535 29.56 183.735 30.072 182.775 30.456C181.815 30.8187 180.695 31 179.415 31H170.327ZM174.007 27.608H178.967C179.735 27.608 180.385 27.448 180.919 27.128C181.452 26.808 181.857 26.3813 182.135 25.848C182.412 25.3147 182.551 24.7387 182.551 24.12C182.551 23.1813 182.252 22.4027 181.655 21.784C181.057 21.1653 180.161 20.856 178.967 20.856H174.007V27.608ZM205.125 31C204.911 31 204.73 30.9253 204.581 30.776C204.431 30.6267 204.357 30.4453 204.357 30.232V12.6H197.413V16.632C197.413 19.192 197.274 21.3787 196.997 23.192C196.741 25.0053 196.314 26.4773 195.717 27.608C195.119 28.7173 194.309 29.5493 193.285 30.104C192.261 30.6373 190.981 30.9253 189.445 30.968C189.231 30.9893 189.039 30.9253 188.868 30.776C188.719 30.6053 188.645 30.4133 188.645 30.2V27.8C188.645 27.352 188.89 27.096 189.381 27.032C190.021 26.9253 190.565 26.6267 191.013 26.136C191.482 25.6453 191.866 24.952 192.165 24.056C192.485 23.16 192.719 22.0507 192.869 20.728C193.018 19.384 193.093 17.8267 193.093 16.056V9.368C193.093 9.15466 193.167 8.97333 193.317 8.824C193.466 8.67467 193.647 8.6 193.861 8.6H208.005C208.239 8.6 208.431 8.67467 208.581 8.824C208.73 8.97333 208.805 9.16533 208.805 9.4V30.232C208.805 30.4453 208.73 30.6267 208.581 30.776C208.431 30.9253 208.239 31 208.005 31H205.125ZM214.577 31C214.363 31 214.182 30.9253 214.033 30.776C213.883 30.6267 213.809 30.4453 213.809 30.232V9.4C213.809 9.16533 213.883 8.97333 214.033 8.824C214.182 8.67467 214.363 8.6 214.577 8.6H228.657C228.891 8.6 229.083 8.67467 229.233 8.824C229.382 8.97333 229.457 9.16533 229.457 9.4V11.512C229.457 11.7253 229.382 11.9067 229.233 12.056C229.083 12.2053 228.891 12.28 228.657 12.28H218.129V17.944H227.953C228.187 17.944 228.379 18.0187 228.529 18.168C228.678 18.296 228.753 18.4773 228.753 18.712V20.696C228.753 20.9307 228.678 21.1227 228.529 21.272C228.379 21.4 228.187 21.464 227.953 21.464H218.129V27.32H228.913C229.147 27.32 229.339 27.3947 229.489 27.544C229.638 27.6933 229.713 27.8853 229.713 28.12V30.232C229.713 30.4453 229.638 30.6267 229.489 30.776C229.339 30.9253 229.147 31 228.913 31H214.577ZM234.483 31C234.269 31 234.088 30.936 233.939 30.808C233.789 30.6587 233.715 30.4667 233.715 30.232V9.4C233.715 9.16533 233.789 8.97333 233.939 8.824C234.088 8.67467 234.269 8.6 234.483 8.6H237.395C237.629 8.6 237.811 8.67467 237.939 8.824C238.088 8.97333 238.163 9.16533 238.163 9.4V17.656H247.603V9.4C247.603 9.16533 247.677 8.97333 247.827 8.824C247.976 8.67467 248.157 8.6 248.371 8.6H251.251C251.485 8.6 251.677 8.67467 251.827 8.824C251.976 8.97333 252.051 9.16533 252.051 9.4V30.232C252.051 30.4453 251.976 30.6267 251.827 30.776C251.677 30.9253 251.485 31 251.251 31H248.371C248.157 31 247.976 30.9253 247.827 30.776C247.677 30.6267 247.603 30.4453 247.603 30.232V21.656H238.163V30.232C238.163 30.4453 238.088 30.6267 237.939 30.776C237.811 30.9253 237.629 31 237.395 31H234.483ZM257.795 31C257.582 31 257.401 30.9253 257.251 30.776C257.102 30.6267 257.027 30.4453 257.027 30.232V9.368C257.027 9.15466 257.102 8.97333 257.251 8.824C257.401 8.67467 257.582 8.6 257.795 8.6H260.803C261.038 8.6 261.219 8.67467 261.347 8.824C261.497 8.97333 261.571 9.15466 261.571 9.368V30.232C261.571 30.4453 261.497 30.6267 261.347 30.776C261.219 30.9253 261.038 31 260.803 31H257.795Z" fill="#2F80ED"/>
<path d="M98.264 69C98.0507 69 97.8693 68.936 97.72 68.808C97.5707 68.6587 97.496 68.4667 97.496 68.232V47.4C97.496 47.1653 97.5707 46.9733 97.72 46.824C97.8693 46.6747 98.0507 46.6 98.264 46.6H115.032C115.267 46.6 115.459 46.6747 115.608 46.824C115.757 46.9733 115.832 47.1653 115.832 47.4V68.232C115.832 68.4453 115.757 68.6267 115.608 68.776C115.459 68.9253 115.267 69 115.032 69H112.152C111.939 69 111.757 68.9253 111.608 68.776C111.459 68.6267 111.384 68.4453 111.384 68.232V50.6H101.944V68.232C101.944 68.4453 101.869 68.6267 101.72 68.776C101.592 68.9253 101.411 69 101.176 69H98.264ZM129.448 69.32C127.549 69.32 125.917 69.0107 124.552 68.392C123.186 67.752 122.12 66.7813 121.352 65.48C120.584 64.1573 120.168 62.5147 120.104 60.552C120.082 59.6347 120.072 58.728 120.072 57.832C120.072 56.936 120.082 56.0187 120.104 55.08C120.168 53.1387 120.594 51.5173 121.384 50.216C122.173 48.9147 123.25 47.9333 124.616 47.272C126.002 46.6107 127.613 46.28 129.448 46.28C131.282 46.28 132.893 46.6107 134.28 47.272C135.666 47.9333 136.754 48.9147 137.544 50.216C138.333 51.5173 138.76 53.1387 138.824 55.08C138.866 56.0187 138.888 56.936 138.888 57.832C138.888 58.728 138.866 59.6347 138.824 60.552C138.76 62.5147 138.344 64.1573 137.576 65.48C136.808 66.7813 135.73 67.752 134.344 68.392C132.978 69.0107 131.346 69.32 129.448 69.32ZM129.448 65.64C130.834 65.64 131.965 65.2347 132.84 64.424C133.714 63.592 134.184 62.248 134.248 60.392C134.29 59.4533 134.312 58.5893 134.312 57.8C134.312 56.9893 134.29 56.1253 134.248 55.208C134.205 53.9707 133.97 52.968 133.544 52.2C133.138 51.4107 132.584 50.8453 131.88 50.504C131.176 50.1413 130.365 49.96 129.448 49.96C128.552 49.96 127.752 50.1413 127.048 50.504C126.344 50.8453 125.778 51.4107 125.352 52.2C124.946 52.968 124.722 53.9707 124.68 55.208C124.658 56.1253 124.648 56.9893 124.648 57.8C124.648 58.5893 124.658 59.4533 124.68 60.392C124.744 62.248 125.213 63.592 126.088 64.424C126.962 65.2347 128.082 65.64 129.448 65.64ZM151.73 69.32C149.746 69.32 148.06 68.9787 146.674 68.296C145.308 67.592 144.263 66.6 143.538 65.32C142.812 64.0187 142.407 62.4613 142.322 60.648C142.3 59.7733 142.29 58.8347 142.29 57.832C142.29 56.8293 142.3 55.8693 142.322 54.952C142.407 53.16 142.812 51.6133 143.538 50.312C144.284 49.0107 145.34 48.0187 146.706 47.336C148.092 46.632 149.767 46.28 151.73 46.28C153.18 46.28 154.482 46.472 155.634 46.856C156.786 47.24 157.767 47.7733 158.578 48.456C159.388 49.1173 160.018 49.896 160.466 50.792C160.914 51.688 161.148 52.6587 161.17 53.704C161.191 53.896 161.127 54.056 160.978 54.184C160.85 54.312 160.69 54.376 160.498 54.376H157.458C157.223 54.376 157.031 54.3227 156.882 54.216C156.732 54.088 156.626 53.8853 156.562 53.608C156.22 52.2 155.634 51.24 154.802 50.728C153.97 50.216 152.935 49.96 151.698 49.96C150.268 49.96 149.127 50.3653 148.274 51.176C147.42 51.9653 146.962 53.2773 146.898 55.112C146.834 56.8613 146.834 58.6533 146.898 60.488C146.962 62.3227 147.42 63.6453 148.274 64.456C149.127 65.2453 150.268 65.64 151.698 65.64C152.935 65.64 153.97 65.384 154.802 64.872C155.634 64.3387 156.22 63.3787 156.562 61.992C156.626 61.6933 156.732 61.4907 156.882 61.384C157.031 61.2773 157.223 61.224 157.458 61.224H160.498C160.69 61.224 160.85 61.288 160.978 61.416C161.127 61.544 161.191 61.704 161.17 61.896C161.148 62.9413 160.914 63.912 160.466 64.808C160.018 65.704 159.388 66.4933 158.578 67.176C157.767 67.8373 156.786 68.36 155.634 68.744C154.482 69.128 153.18 69.32 151.73 69.32ZM165.733 69C165.519 69 165.338 68.9253 165.189 68.776C165.039 68.6267 164.965 68.4347 164.965 68.2V47.4C164.965 47.1653 165.039 46.9733 165.189 46.824C165.338 46.6747 165.53 46.6 165.765 46.6H168.645C168.879 46.6 169.061 46.6747 169.189 46.824C169.338 46.9733 169.413 47.1653 169.413 47.4V62.088L179.941 47.112C180.026 47.0053 180.143 46.8987 180.293 46.792C180.442 46.664 180.634 46.6 180.869 46.6H183.525C183.738 46.6 183.919 46.6747 184.069 46.824C184.218 46.9733 184.293 47.1653 184.293 47.4V68.232C184.293 68.4453 184.218 68.6267 184.069 68.776C183.919 68.9253 183.738 69 183.525 69H180.645C180.41 69 180.218 68.9253 180.069 68.776C179.919 68.6267 179.845 68.4453 179.845 68.232V53.832L169.349 68.488C169.285 68.5733 169.178 68.68 169.029 68.808C168.879 68.936 168.677 69 168.421 69H165.733ZM204.093 69C203.88 69 203.699 68.9253 203.549 68.776C203.4 68.6267 203.325 68.4453 203.325 68.232V50.6H196.381V54.632C196.381 57.192 196.243 59.3787 195.965 61.192C195.709 63.0053 195.283 64.4773 194.685 65.608C194.088 66.7173 193.277 67.5493 192.253 68.104C191.229 68.6373 189.949 68.9253 188.413 68.968C188.2 68.9893 188.008 68.9253 187.837 68.776C187.688 68.6053 187.613 68.4133 187.613 68.2V65.8C187.613 65.352 187.859 65.096 188.349 65.032C188.989 64.9253 189.533 64.6267 189.981 64.136C190.451 63.6453 190.835 62.952 191.133 62.056C191.453 61.16 191.688 60.0507 191.837 58.728C191.987 57.384 192.061 55.8267 192.061 54.056V47.368C192.061 47.1547 192.136 46.9733 192.285 46.824C192.435 46.6747 192.616 46.6 192.829 46.6H206.973C207.208 46.6 207.4 46.6747 207.549 46.824C207.699 46.9733 207.773 47.1653 207.773 47.4V68.232C207.773 68.4453 207.699 68.6267 207.549 68.776C207.4 68.9253 207.208 69 206.973 69H204.093ZM213.545 69C213.332 69 213.151 68.936 213.001 68.808C212.852 68.6587 212.777 68.4667 212.777 68.232V47.4C212.777 47.1653 212.852 46.9733 213.001 46.824C213.151 46.6747 213.332 46.6 213.545 46.6H216.457C216.692 46.6 216.873 46.6747 217.001 46.824C217.151 46.9733 217.225 47.1653 217.225 47.4V55.656H220.009L225.225 47.176C225.332 47.0053 225.471 46.8667 225.641 46.76C225.833 46.6533 226.079 46.6 226.377 46.6H229.545C229.759 46.6 229.919 46.664 230.025 46.792C230.153 46.92 230.217 47.08 230.217 47.272C230.217 47.3787 230.175 47.5067 230.089 47.656L224.041 57.416L230.665 67.912C230.729 67.976 230.761 68.0933 230.761 68.264C230.761 68.456 230.687 68.6267 230.537 68.776C230.409 68.9253 230.239 69 230.025 69H226.729C226.452 69 226.239 68.936 226.089 68.808C225.961 68.68 225.855 68.5627 225.769 68.456L220.169 59.656H217.225V68.232C217.225 68.4453 217.151 68.6267 217.001 68.776C216.873 68.9253 216.692 69 216.457 69H213.545ZM234.983 69C234.769 69 234.588 68.9253 234.439 68.776C234.289 68.6267 234.215 68.4347 234.215 68.2V47.4C234.215 47.1653 234.289 46.9733 234.439 46.824C234.588 46.6747 234.78 46.6 235.015 46.6H237.895C238.129 46.6 238.311 46.6747 238.439 46.824C238.588 46.9733 238.663 47.1653 238.663 47.4V62.088L249.191 47.112C249.276 47.0053 249.393 46.8987 249.543 46.792C249.692 46.664 249.884 46.6 250.119 46.6H252.775C252.988 46.6 253.169 46.6747 253.319 46.824C253.468 46.9733 253.543 47.1653 253.543 47.4V68.232C253.543 68.4453 253.468 68.6267 253.319 68.776C253.169 68.9253 252.988 69 252.775 69H249.895C249.66 69 249.468 68.9253 249.319 68.776C249.169 68.6267 249.095 68.4453 249.095 68.232V53.832L238.599 68.488C238.535 68.5733 238.428 68.68 238.279 68.808C238.129 68.936 237.927 69 237.671 69H234.983Z" fill="#2F80ED"/>
</svg>
